<?xml version="1.0" standalone="no"?><!DOCTYPE svg PUBLIC "-//W3C//DTD SVG 1.1//EN" "http://www.w3.org/Graphics/SVG/1.1/DTD/svg11.dtd"><svg t="1545806844318" class="icon" style="" viewBox="0 0 1024 1024" version="1.1" xmlns="http://www.w3.org/2000/svg" p-id="2482" xmlns:xlink="http://www.w3.org/1999/xlink" width="32" height="32"><defs><style type="text/css"></style></defs><path d="M762.422546 216.241455c0-29.064162-23.537877-52.4997-52.4997-52.4997L309.369578 163.741755c-29.064162 0-52.4997 23.537877-52.4997 52.4997l0 625.595842c0 29.064162 23.537877 52.4997 52.4997 52.4997l400.450929 0c29.064162 0 52.4997-23.537877 52.4997-52.4997L762.320208 216.241455zM717.393564 841.939636c0 4.195882-3.377174 7.470718-7.470718 7.470718L309.369578 849.410354c-4.195882 0-7.470718-3.377174-7.470718-7.470718L301.898861 216.241455c0-4.195882 3.377174-7.470718 7.470718-7.470718l400.450929 0c4.195882 0 7.470718 3.377174 7.470718 7.470718L717.291225 841.939636z" p-id="2483" fill="#8a8a8a"></path><path d="M329.530282 734.791125l360.231861 0L689.762143 229.238457 329.530282 229.238457 329.530282 734.791125zM374.559264 274.26744l270.173896 0 0 415.494703L374.559264 689.762143 374.559264 274.26744z" p-id="2484" fill="#8a8a8a"></path><path d="M504.529282 792.10074m-25.584649 0a25 25 0 1 0 51.169298 0 25 25 0 1 0-51.169298 0Z" p-id="2485" fill="#8a8a8a"></path></svg>